<?xml version="1.0" encoding="utf-8"?>
<!-- Generator: Adobe Illustrator 16.0.3, SVG Export Plug-In . SVG Version: 6.00 Build 0)  -->
<!DOCTYPE svg PUBLIC "-//W3C//DTD SVG 1.1//EN" "http://www.w3.org/Graphics/SVG/1.1/DTD/svg11.dtd">
<svg version="1.1" id="Layer_1" xmlns="http://www.w3.org/2000/svg" xmlns:xlink="http://www.w3.org/1999/xlink" x="0px" y="0px"
	 width="750px" height="750px" viewBox="0 0 750 750" enable-background="new 0 0 750 750" xml:space="preserve">
<g>
	<path fill-rule="evenodd" clip-rule="evenodd" fill="#FFCD09" d="M440.51,312.343c-5.969-4.463-12.922-6.134-20.21-6.169
		c-22.604-0.107-45.209-0.106-67.813,0.02c-3.81,0.021-7.699,0.519-11.407,1.402c-12.868,3.065-18.438,10.329-18.438,23.522
		c0,30.104-0.006,60.208,0.004,90.311c0.003,10.498,5.199,18.432,15.083,21.936c4.262,1.512,8.923,2.475,13.433,2.6
		c12.632,0.348,25.279,0.135,37.921,0.127c0.906-0.002,1.812-0.133,3.65-0.277c-11.662-10.596-22.7-20.623-33.738-30.65
		c0.068-0.271,0.136-0.543,0.204-0.814c1.139,0,2.277,0,3.416,0c12.748,0,25.499,0.143,38.243-0.088
		c3.864-0.068,6.598,1.168,9.353,3.773c7.937,7.506,16.188,14.676,24.193,22.109c1.9,1.766,3.289,1.66,5.232,0.211
		c5.526-4.125,8.607-9.609,8.631-16.426c0.111-32.031,0.099-64.064,0.017-96.095C448.268,321.499,445.639,316.18,440.51,312.343z"/>
	<path fill-rule="evenodd" clip-rule="evenodd" fill="#FFCD09" d="M375,0C167.893,0,0,167.893,0,375c0,207.106,167.893,375,375,375
		c207.106,0,375-167.894,375-375C750,167.893,582.106,0,375,0z M251.978,282.314c-0.255,5.988-0.045,11.995-0.082,17.994
		c-0.035,5.771,0.766,5.216-5.062,5.218c-37.6,0.013-75.2-0.105-112.797,0.116c-6.234,0.037-12.567,1.066-18.661,2.477
		c-6.506,1.506-9.902,6.519-9.994,13.224c-0.092,6.64-0.035,13.282-0.023,19.924c0.02,10.738,5.731,17.899,16.248,19.883
		c4.177,0.787,8.483,1.193,12.735,1.229c18.959,0.156,37.937-0.364,56.875,0.291c16.922,0.585,32.943,5.07,46.75,15.474
		c8.046,6.064,12.698,13.838,12.169,24.439c-0.439,8.762-0.307,17.57-0.038,26.346c0.373,12.211-4.87,21.477-14.384,28.549
		c-11.063,8.225-23.699,12.707-37.257,14.42c-6.343,0.803-12.801,0.918-19.207,0.932c-37.171,0.082-74.342,0.041-111.512,0.039
		c-4.339,0-4.342-0.012-4.343-4.41c-0.002-6.318,0.173-12.646-0.074-18.957c-0.124-3.188,0.676-4.152,4.036-4.141
		c36.955,0.133,73.912,0.16,110.867-0.004c5.178-0.023,10.49-0.717,15.48-2.061c3.463-0.932,6.744-3.18,9.631-5.447
		c3.29-2.584,4.962-6.197,4.813-10.676c-0.226-6.848-0.394-13.73,0.028-20.561c0.501-8.08-3.78-12.848-10.465-15.5
		c-4.583-1.818-9.691-3.037-14.604-3.178c-19.474-0.557-38.986-0.063-58.438-0.963c-17.5-0.809-34.305-4.951-48.532-16.053
		c-8.107-6.326-12.748-14.434-12.282-25.167c0.353-8.126,0.081-16.278,0.115-24.419c0.064-15.274,7.192-26.233,20.463-33.436
		c11.703-6.352,24.288-9.43,37.523-9.54c20.779-0.172,41.562-0.046,62.343-0.046c0-0.028,0-0.058,0-0.088
		c21.21,0,42.42,0.078,63.629-0.079C251.274,278.119,252.113,279.115,251.978,282.314z M499.599,502.18
		c-13.922,0.008-27.846,0.064-41.767-0.074c-1.625-0.018-3.593-0.732-4.802-1.801c-9.868-8.721-19.627-17.568-29.333-26.471
		c-1.701-1.561-3.267-2.168-5.676-1.973c-25.729,2.094-51.525,2.625-77.309,1.893c-16.658-0.471-32.67-4.26-46.595-14.08
		c-10.386-7.322-15.913-17.656-15.999-30.309c-0.24-35.445-0.183-70.896-0.111-106.344c0.028-14.075,6.465-24.787,18.154-32.374
		c9.888-6.415,21.024-9.442,32.53-10.961c6.97-0.92,14.057-1.255,21.095-1.3c23.775-0.153,47.553-0.218,71.326,0.001
		c14.443,0.133,28.507,2.711,41.641,9.014c12.585,6.04,21.172,15.43,23.492,29.653c0.395,2.415,0.537,4.897,0.535,7.348
		c-0.027,35.448,0.061,70.897-0.238,106.342c-0.123,14.518-6.956,25.281-20.214,31.688c-1.154,0.559-2.295,1.145-3.431,1.738
		c-0.178,0.092-0.295,0.297-0.877,0.912c13.443,12.209,26.8,24.338,40.695,36.959C501.195,502.111,500.397,502.18,499.599,502.18z
		 M700.65,469.941c0.043,2.293-0.794,2.959-2.973,2.953c-39.202-0.125-78.409,0.121-117.604-0.455
		c-13.878-0.205-27.615-2.91-40.403-8.934c-13.059-6.152-22.081-15.66-24.715-30.289c-0.565-3.141-0.869-6.371-0.88-9.561
		c-0.072-23.457-0.039-46.916-0.039-70.373c0-23.779,0.052-47.56-0.066-71.338c-0.015-2.945,0.767-3.832,3.74-3.788
		c11.244,0.163,22.495,0.19,33.738-0.013c3.276-0.06,4.13,0.892,4.123,4.13c-0.101,46.273-0.083,92.546-0.035,138.819
		c0.003,2.979,0.16,6.029,0.812,8.92c2.046,9.09,9.058,12.521,17.238,14.008c4.914,0.895,9.975,1.344,14.971,1.359
		c36.097,0.111,72.194,0.09,108.291,0.008c2.826-0.008,3.947,0.553,3.836,3.67C700.435,456.012,700.524,462.982,700.65,469.941z"/>
</g>
</svg>
